<?xml version="1.0" encoding="iso-8859-1"?>
<!-- Generator: Adobe Illustrator 19.0.0, SVG Export Plug-In . SVG Version: 6.00 Build 0)  -->
<svg version="1.1" id="Capa_1" xmlns="http://www.w3.org/2000/svg" xmlns:xlink="http://www.w3.org/1999/xlink" x="0px" y="0px"
	 viewBox="0 0 480.006 480.006" style="enable-background:new 0 0 480.006 480.006;" xml:space="preserve">
<g>
	<g>
		<path d="M436.852,1.702c-1.933-1.527-4.469-2.066-6.856-1.456l-256,64c-3.563,0.889-6.063,4.088-6.064,7.76v290.84
			c-24.979-30.888-70.269-35.678-101.157-10.699c-30.888,24.979-35.678,70.269-10.699,101.157
			c24.98,30.888,70.269,35.678,101.157,10.699c16.905-13.671,26.72-34.256,26.699-55.997V158.254l240-60v200.592
			c-24.979-30.888-70.269-35.678-101.157-10.699c-30.888,24.979-35.678,70.269-10.699,101.157
			c24.979,30.888,70.269,35.678,101.157,10.699c16.905-13.671,26.72-34.256,26.699-55.997v-336
			C439.931,5.543,438.795,3.217,436.852,1.702z M111.932,464.006c-30.928,0-56-25.072-56-56c0-30.928,25.072-56,56-56
			c30.928,0,56,25.072,56,56C167.892,438.917,142.844,463.966,111.932,464.006z M367.932,400.006c-30.928,0-56-25.072-56-56
			c0-30.928,25.072-56,56-56c30.928,0,56,25.072,56,56C423.892,374.917,398.844,399.966,367.932,400.006z M423.932,81.758l-240,60
			V78.254l240-60V81.758z"/>
	</g>
</g>
<g>
</g>
<g>
</g>
<g>
</g>
<g>
</g>
<g>
</g>
<g>
</g>
<g>
</g>
<g>
</g>
<g>
</g>
<g>
</g>
<g>
</g>
<g>
</g>
<g>
</g>
<g>
</g>
<g>
</g>
</svg>
